# xmcd CD database file
#
# Track frame offsets:
#	150
#	25787
#	51042
#	68387
#	80121
#	93096
#	106736
#	127131
#	140962
#	164285
#	190804
#	205403
#	221132
#
# Disc length: 3425 seconds
#
# Revision: 0
# Processed by: cddbd v1.4PL0 Copyright (c) Steve Scherf et al.
# Submitted via: CDex 1.50beta10
#
DISCID=ba0d5f0d
DTITLE=Nina Simone - The Other Woman
DYEAR=2000
DGENRE=Blues
TTITLE0=Trouble in Mind
TTITLE1=Summertime
TTITLE2=Forbidden Fruit
TTITLE3=Work Song
TTITLE4=Cotton Eyed Joe
TTITLE5=The Other Woman
TTITLE6=Little Liza Jane
TTITLE7=Gin House Blues
TTITLE8=Porgy
TTITLE9=You Can Have Him
TTITLE10=Exactly Like You
TTITLE11=Black is the Colour of my True Love's Hair
TTITLE12=Under the Lowest
EXTD=YEAR: 2000
EXTT0=
EXTT1=
EXTT2=
EXTT3=
EXTT4=
EXTT5=
EXTT6=
EXTT7=
EXTT8=
EXTT9=
EXTT10=
EXTT11=
EXTT12=
PLAYORDER=
